<mxfile host="65bd71144e" modified="2021-02-26T12:30:34.013Z" agent="5.0 (Macintosh; Intel Mac OS X 10_15_7) AppleWebKit/537.36 (KHTML, like Gecko) Code/1.53.2 Chrome/87.0.4280.141 Electron/11.2.1 Safari/537.36" etag="cNFNPdlcnWvTB6IZx8fR" version="14.2.4" type="embed" pages="2">
    <diagram id="H4SSjCymd0ZZ48-rM7Cr" name="Page-1">
        <mxGraphModel dx="924" dy="716" grid="1" gridSize="10" guides="1" tooltips="1" connect="1" arrows="1" fold="1" page="1" pageScale="1" pageWidth="827" pageHeight="1169" math="0" shadow="0">
            <root>
                <mxCell id="0"/>
                <mxCell id="1" parent="0"/>
                <mxCell id="WA83NnyDRcnUzadPlLup-3" value="" style="rounded=0;whiteSpace=wrap;html=1;direction=south;" parent="1" vertex="1">
                    <mxGeometry x="170" y="84" width="560" height="606" as="geometry"/>
                </mxCell>
                <mxCell id="WA83NnyDRcnUzadPlLup-4" value="" style="ellipse;whiteSpace=wrap;html=1;" parent="1" vertex="1">
                    <mxGeometry x="335" y="160" width="120" height="80" as="geometry"/>
                </mxCell>
                <mxCell id="WA83NnyDRcnUzadPlLup-5" value="&lt;font style=&quot;font-size: 22px&quot;&gt;Vet Practice&lt;/font&gt;" style="text;html=1;strokeColor=none;fillColor=none;align=center;verticalAlign=middle;whiteSpace=wrap;rounded=0;" parent="1" vertex="1">
                    <mxGeometry x="230" y="100" width="70" height="30" as="geometry"/>
                </mxCell>
                <mxCell id="WA83NnyDRcnUzadPlLup-6" value="" style="ellipse;whiteSpace=wrap;html=1;" parent="1" vertex="1">
                    <mxGeometry x="335" y="270" width="120" height="80" as="geometry"/>
                </mxCell>
                <mxCell id="WA83NnyDRcnUzadPlLup-7" value="" style="ellipse;whiteSpace=wrap;html=1;" parent="1" vertex="1">
                    <mxGeometry x="335" y="380" width="120" height="80" as="geometry"/>
                </mxCell>
                <mxCell id="WA83NnyDRcnUzadPlLup-8" value="&lt;font style=&quot;font-size: 16px&quot;&gt;Register Animal&lt;/font&gt;" style="text;html=1;strokeColor=none;fillColor=none;align=center;verticalAlign=middle;whiteSpace=wrap;rounded=0;" parent="1" vertex="1">
                    <mxGeometry x="374" y="190" width="40" height="20" as="geometry"/>
                </mxCell>
                <mxCell id="WA83NnyDRcnUzadPlLup-9" value="&lt;font style=&quot;font-size: 20px&quot;&gt;Management&lt;/font&gt;" style="shape=umlActor;verticalLabelPosition=bottom;verticalAlign=top;html=1;outlineConnect=0;" parent="1" vertex="1">
                    <mxGeometry x="60" y="290" width="30" height="60" as="geometry"/>
                </mxCell>
                <mxCell id="WA83NnyDRcnUzadPlLup-10" value="&lt;font style=&quot;font-size: 16px&quot;&gt;Amend Entry Details&lt;/font&gt;" style="text;html=1;strokeColor=none;fillColor=none;align=center;verticalAlign=middle;whiteSpace=wrap;rounded=0;" parent="1" vertex="1">
                    <mxGeometry x="375" y="300" width="40" height="20" as="geometry"/>
                </mxCell>
                <mxCell id="WA83NnyDRcnUzadPlLup-11" value="&lt;span style=&quot;font-size: 16px&quot;&gt;Delete&amp;nbsp;&lt;/span&gt;" style="text;html=1;strokeColor=none;fillColor=none;align=center;verticalAlign=middle;whiteSpace=wrap;rounded=0;" parent="1" vertex="1">
                    <mxGeometry x="375" y="410" width="40" height="20" as="geometry"/>
                </mxCell>
                <mxCell id="WA83NnyDRcnUzadPlLup-12" value="" style="shape=image;verticalLabelPosition=bottom;labelBackgroundColor=#ffffff;verticalAlign=top;aspect=fixed;imageAspect=0;image=https://d2gg9evh47fn9z.cloudfront.net/800px_COLOURBOX34484689.jpg;" parent="1" vertex="1">
                    <mxGeometry x="640" y="255" width="150" height="150" as="geometry"/>
                </mxCell>
                <mxCell id="WA83NnyDRcnUzadPlLup-19" value="" style="endArrow=none;html=1;" parent="1" source="WA83NnyDRcnUzadPlLup-4" edge="1">
                    <mxGeometry width="50" height="50" relative="1" as="geometry">
                        <mxPoint x="410" y="500" as="sourcePoint"/>
                        <mxPoint x="110" y="320" as="targetPoint"/>
                    </mxGeometry>
                </mxCell>
                <mxCell id="WA83NnyDRcnUzadPlLup-20" value="" style="endArrow=none;html=1;exitX=0;exitY=0.5;exitDx=0;exitDy=0;" parent="1" source="WA83NnyDRcnUzadPlLup-6" edge="1">
                    <mxGeometry width="50" height="50" relative="1" as="geometry">
                        <mxPoint x="384" y="218.45070422535218" as="sourcePoint"/>
                        <mxPoint x="120" y="330" as="targetPoint"/>
                    </mxGeometry>
                </mxCell>
                <mxCell id="WA83NnyDRcnUzadPlLup-21" value="" style="endArrow=none;html=1;" parent="1" source="WA83NnyDRcnUzadPlLup-7" edge="1">
                    <mxGeometry width="50" height="50" relative="1" as="geometry">
                        <mxPoint x="344.9999999999998" y="320" as="sourcePoint"/>
                        <mxPoint x="130" y="340" as="targetPoint"/>
                    </mxGeometry>
                </mxCell>
                <mxCell id="WA83NnyDRcnUzadPlLup-22" value="" style="endArrow=none;html=1;" parent="1" source="WA83NnyDRcnUzadPlLup-4" edge="1">
                    <mxGeometry width="50" height="50" relative="1" as="geometry">
                        <mxPoint x="354.28561051950373" y="231.37548647525023" as="sourcePoint"/>
                        <mxPoint x="650" y="296" as="targetPoint"/>
                    </mxGeometry>
                </mxCell>
                <mxCell id="WA83NnyDRcnUzadPlLup-23" value="" style="endArrow=none;html=1;exitX=1;exitY=0.5;exitDx=0;exitDy=0;" parent="1" source="WA83NnyDRcnUzadPlLup-6" target="WA83NnyDRcnUzadPlLup-12" edge="1">
                    <mxGeometry width="50" height="50" relative="1" as="geometry">
                        <mxPoint x="364.28561051950373" y="241.37548647525023" as="sourcePoint"/>
                        <mxPoint x="130" y="340" as="targetPoint"/>
                    </mxGeometry>
                </mxCell>
                <mxCell id="WA83NnyDRcnUzadPlLup-25" value="" style="endArrow=none;html=1;exitX=0.996;exitY=0.25;exitDx=0;exitDy=0;exitPerimeter=0;entryX=-0.043;entryY=0.644;entryDx=0;entryDy=0;entryPerimeter=0;" parent="1" source="WA83NnyDRcnUzadPlLup-7" target="WA83NnyDRcnUzadPlLup-12" edge="1">
                    <mxGeometry width="50" height="50" relative="1" as="geometry">
                        <mxPoint x="469.9999999999998" y="350" as="sourcePoint"/>
                        <mxPoint x="675" y="357.5925925925926" as="targetPoint"/>
                    </mxGeometry>
                </mxCell>
                <mxCell id="13" style="edgeStyle=orthogonalEdgeStyle;rounded=0;orthogonalLoop=1;jettySize=auto;html=1;exitX=1;exitY=0.5;exitDx=0;exitDy=0;" edge="1" parent="1" source="2" target="WA83NnyDRcnUzadPlLup-12">
                    <mxGeometry relative="1" as="geometry">
                        <Array as="points">
                            <mxPoint x="660" y="520"/>
                        </Array>
                    </mxGeometry>
                </mxCell>
                <mxCell id="2" value="Register Customer" style="ellipse;whiteSpace=wrap;html=1;" parent="1" vertex="1">
                    <mxGeometry x="335" y="480" width="120" height="80" as="geometry"/>
                </mxCell>
                <mxCell id="16" style="edgeStyle=orthogonalEdgeStyle;rounded=0;orthogonalLoop=1;jettySize=auto;html=1;exitX=1;exitY=0.5;exitDx=0;exitDy=0;entryX=0.5;entryY=1;entryDx=0;entryDy=0;" edge="1" parent="1" source="4" target="WA83NnyDRcnUzadPlLup-12">
                    <mxGeometry relative="1" as="geometry"/>
                </mxCell>
                <mxCell id="4" value="Amend Customer Details" style="ellipse;whiteSpace=wrap;html=1;" parent="1" vertex="1">
                    <mxGeometry x="335" y="584" width="120" height="80" as="geometry"/>
                </mxCell>
                <mxCell id="6" value="" style="endArrow=none;html=1;exitX=0;exitY=0.5;exitDx=0;exitDy=0;" edge="1" parent="1" source="2">
                    <mxGeometry width="50" height="50" relative="1" as="geometry">
                        <mxPoint x="350.3427491866869" y="413.49969786767906" as="sourcePoint"/>
                        <mxPoint x="130" y="380" as="targetPoint"/>
                    </mxGeometry>
                </mxCell>
                <mxCell id="7" value="" style="endArrow=none;html=1;exitX=0;exitY=0.5;exitDx=0;exitDy=0;" edge="1" parent="1" source="4">
                    <mxGeometry width="50" height="50" relative="1" as="geometry">
                        <mxPoint x="345" y="530" as="sourcePoint"/>
                        <mxPoint x="130" y="390" as="targetPoint"/>
                    </mxGeometry>
                </mxCell>
            </root>
        </mxGraphModel>
    </diagram>
    <diagram id="QgfxNv7GI97rDnRRxP9C" name="Page-2">
        <mxGraphModel dx="785" dy="609" grid="1" gridSize="10" guides="1" tooltips="1" connect="1" arrows="1" fold="1" page="1" pageScale="1" pageWidth="827" pageHeight="1169" math="0" shadow="0">
            <root>
                <mxCell id="3ek6ge8NJHw8sk6zkAhJ-0"/>
                <mxCell id="3ek6ge8NJHw8sk6zkAhJ-1" parent="3ek6ge8NJHw8sk6zkAhJ-0"/>
                <mxCell id="3ek6ge8NJHw8sk6zkAhJ-2" value="Vetenarian" style="swimlane;childLayout=stackLayout;horizontal=1;startSize=30;horizontalStack=0;rounded=1;fontSize=14;fontStyle=0;strokeWidth=2;resizeParent=0;resizeLast=1;shadow=0;dashed=0;align=center;" parent="3ek6ge8NJHw8sk6zkAhJ-1" vertex="1">
                    <mxGeometry x="130" y="190" width="160" height="120" as="geometry"/>
                </mxCell>
                <mxCell id="3ek6ge8NJHw8sk6zkAhJ-3" value="+PK ID: Int&#10;+name: Str" style="align=left;strokeColor=none;fillColor=none;spacingLeft=4;fontSize=12;verticalAlign=top;resizable=0;rotatable=0;part=1;" parent="3ek6ge8NJHw8sk6zkAhJ-2" vertex="1">
                    <mxGeometry y="30" width="160" height="90" as="geometry"/>
                </mxCell>
                <mxCell id="3ek6ge8NJHw8sk6zkAhJ-4" value="Animal" style="swimlane;childLayout=stackLayout;horizontal=1;startSize=30;horizontalStack=0;rounded=1;fontSize=14;fontStyle=0;strokeWidth=2;resizeParent=0;resizeLast=1;shadow=0;dashed=0;align=center;" parent="3ek6ge8NJHw8sk6zkAhJ-1" vertex="1">
                    <mxGeometry x="480" y="190" width="160" height="120" as="geometry"/>
                </mxCell>
                <mxCell id="3ek6ge8NJHw8sk6zkAhJ-5" value="+PK ID: Int&#10;+Name: str&#10;+Type_of: str&#10;+Contact_Details: Int&#10;+Treatment notes: str" style="align=left;strokeColor=none;fillColor=none;spacingLeft=4;fontSize=12;verticalAlign=top;resizable=0;rotatable=0;part=1;" parent="3ek6ge8NJHw8sk6zkAhJ-4" vertex="1">
                    <mxGeometry y="30" width="160" height="90" as="geometry"/>
                </mxCell>
                <mxCell id="3ek6ge8NJHw8sk6zkAhJ-6" value="Halo: Vetenarian" style="swimlane;childLayout=stackLayout;horizontal=1;startSize=30;horizontalStack=0;rounded=1;fontSize=14;fontStyle=0;strokeWidth=2;resizeParent=0;resizeLast=1;shadow=0;dashed=0;align=center;" parent="3ek6ge8NJHw8sk6zkAhJ-1" vertex="1">
                    <mxGeometry x="130" y="430" width="160" height="120" as="geometry"/>
                </mxCell>
                <mxCell id="3ek6ge8NJHw8sk6zkAhJ-7" value="+ID: 1&#10;+name: Halo Pet Care" style="align=left;strokeColor=none;fillColor=none;spacingLeft=4;fontSize=12;verticalAlign=top;resizable=0;rotatable=0;part=1;" parent="3ek6ge8NJHw8sk6zkAhJ-6" vertex="1">
                    <mxGeometry y="30" width="160" height="90" as="geometry"/>
                </mxCell>
                <mxCell id="3ek6ge8NJHw8sk6zkAhJ-8" value="Beethoven: Dog" style="swimlane;childLayout=stackLayout;horizontal=1;startSize=30;horizontalStack=0;rounded=1;fontSize=14;fontStyle=0;strokeWidth=2;resizeParent=0;resizeLast=1;shadow=0;dashed=0;align=center;" parent="3ek6ge8NJHw8sk6zkAhJ-1" vertex="1">
                    <mxGeometry x="480" y="430" width="180" height="120" as="geometry"/>
                </mxCell>
                <mxCell id="3ek6ge8NJHw8sk6zkAhJ-9" value="+ID: 2&#10;+Type: Dog&#10;+Owner details: 07957941877&#10;+Treatment notes: No previous &#10;visitation" style="align=left;strokeColor=none;fillColor=none;spacingLeft=4;fontSize=12;verticalAlign=top;resizable=0;rotatable=0;part=1;" parent="3ek6ge8NJHw8sk6zkAhJ-8" vertex="1">
                    <mxGeometry y="30" width="180" height="90" as="geometry"/>
                </mxCell>
                <mxCell id="3ek6ge8NJHw8sk6zkAhJ-10" value="" style="endArrow=none;html=1;exitX=1.024;exitY=0.335;exitDx=0;exitDy=0;exitPerimeter=0;" parent="3ek6ge8NJHw8sk6zkAhJ-1" source="3ek6ge8NJHw8sk6zkAhJ-7" edge="1">
                    <mxGeometry width="50" height="50" relative="1" as="geometry">
                        <mxPoint x="330" y="470" as="sourcePoint"/>
                        <mxPoint x="470" y="490" as="targetPoint"/>
                    </mxGeometry>
                </mxCell>
                <mxCell id="3ek6ge8NJHw8sk6zkAhJ-15" value="" style="endArrow=open;endFill=1;endSize=12;html=1;exitX=1.017;exitY=0.341;exitDx=0;exitDy=0;exitPerimeter=0;entryX=-0.008;entryY=0.341;entryDx=0;entryDy=0;entryPerimeter=0;" parent="3ek6ge8NJHw8sk6zkAhJ-1" source="3ek6ge8NJHw8sk6zkAhJ-3" target="3ek6ge8NJHw8sk6zkAhJ-5" edge="1">
                    <mxGeometry width="160" relative="1" as="geometry">
                        <mxPoint x="310" y="249.5" as="sourcePoint"/>
                        <mxPoint x="470" y="249.5" as="targetPoint"/>
                    </mxGeometry>
                </mxCell>
                <mxCell id="3ek6ge8NJHw8sk6zkAhJ-16" value="Assigns" style="text;html=1;strokeColor=none;fillColor=none;align=center;verticalAlign=middle;whiteSpace=wrap;rounded=0;" parent="3ek6ge8NJHw8sk6zkAhJ-1" vertex="1">
                    <mxGeometry x="360" y="210" width="40" height="20" as="geometry"/>
                </mxCell>
                <mxCell id="3ek6ge8NJHw8sk6zkAhJ-17" value="" style="triangle;whiteSpace=wrap;html=1;" parent="3ek6ge8NJHw8sk6zkAhJ-1" vertex="1">
                    <mxGeometry x="420" y="210" width="20" height="20" as="geometry"/>
                </mxCell>
            </root>
        </mxGraphModel>
    </diagram>
</mxfile>